<svg width="517" height="517" viewBox="0 0 517 517" fill="none" xmlns="http://www.w3.org/2000/svg">
<rect x="-23" y="-23" width="563.707" height="563.707" rx="11.7303" fill="#0E5CED"/>
<rect x="23.8202" y="23.8167" width="470.074" height="470.074" rx="8" fill="#64D3FF" fill-opacity="0.4"/>
<rect x="48.4847" y="48.4918" width="420.723" height="420.723" rx="8" fill="#64D3FF" fill-opacity="0.4"/>
<g clip-path="url(#clip0_267_2314)">
<rect x="76" y="76" width="365" height="365" rx="8" fill="#83DCFF"/>
<path d="M334.362 440.846C334.362 475.715 294.842 503.982 246.09 503.982C197.339 503.982 157.818 475.715 157.818 440.846C157.818 405.977 197.339 377.711 246.09 377.711C294.842 377.711 334.362 405.977 334.362 440.846Z" fill="#0051C6"/>
<path d="M147.894 390.488C147.894 360.86 171.837 336.843 201.373 336.843H219.452V522.843H147.894V390.488Z" fill="#1062FB"/>
<path d="M344.285 390.488C344.285 360.86 320.342 336.843 290.806 336.843H272.727V522.843H344.285V390.488Z" fill="#1062FB"/>
<path d="M334.362 420.412C334.362 455.28 294.842 483.547 246.09 483.547C197.339 483.547 157.818 455.28 157.818 420.412C157.818 385.543 197.339 357.276 246.09 357.276C294.842 357.276 334.362 385.543 334.362 420.412Z" fill="#0051C6"/>
<path d="M344.286 413.862C344.286 445.114 300.322 470.449 246.09 470.449C191.858 470.449 147.894 445.114 147.894 413.862C147.894 382.611 191.858 357.276 246.09 357.276C300.322 357.276 344.286 382.611 344.286 413.862Z" fill="#1062FB"/>
<path d="M206.747 376.8H224.13V406.095H206.747V376.8Z" fill="#0051C6"/>
<path d="M344.42 408.186L344.42 425.623L289.49 425.623L289.49 408.186L344.42 408.186Z" fill="#0051C6"/>
<path d="M203.27 408.186L203.27 425.623L148.34 425.623L148.34 408.186L203.27 408.186Z" fill="#0051C6"/>
<path d="M267.935 376.8H285.318V406.095H267.935V376.8Z" fill="#0051C6"/>
<path d="M142.148 396.552C142.148 393.589 144.542 391.187 147.496 391.187H148.814C151.767 391.187 154.162 393.589 154.162 396.552V436.121C154.162 439.084 151.767 441.486 148.814 441.486H147.496C144.542 441.486 142.148 439.084 142.148 436.121V396.552Z" fill="#BFCDFA"/>
<path d="M338.541 396.552C338.541 393.589 340.935 391.187 343.889 391.187H345.207C348.16 391.187 350.554 393.589 350.554 396.552V436.121C350.554 439.084 348.16 441.486 345.207 441.486H343.889C340.935 441.486 338.541 439.084 338.541 436.121V396.552Z" fill="#BFCDFA"/>
<path opacity="0.9" d="M202.213 413.948C202.213 410.985 204.608 408.584 207.561 408.584H285.182C288.136 408.584 290.53 410.985 290.53 413.948V428.854C290.53 431.817 288.136 434.219 285.182 434.219H207.561C204.608 434.219 202.213 431.817 202.213 428.854V413.948Z" fill="#0051C6"/>
<path opacity="0.9" d="M202.213 408.67C202.213 405.707 204.608 403.305 207.561 403.305H285.182C288.136 403.305 290.53 405.707 290.53 408.67V423.576C290.53 426.539 288.136 428.94 285.182 428.94H207.561C204.608 428.94 202.213 426.539 202.213 423.576V408.67Z" fill="#CEE0FF"/>
<path d="M224.011 416.124C224.011 420.704 220.31 424.417 215.743 424.417C211.177 424.417 207.475 420.704 207.475 416.124C207.475 411.543 211.177 407.83 215.743 407.83C220.31 407.83 224.011 411.543 224.011 416.124Z" fill="#18BCFF"/>
<path d="M243.93 416.124C243.93 420.704 240.228 424.417 235.662 424.417C231.096 424.417 227.394 420.704 227.394 416.124C227.394 411.543 231.096 407.83 235.662 407.83C240.228 407.83 243.93 411.543 243.93 416.124Z" fill="#1EC173"/>
<path d="M264.599 416.124C264.599 420.704 260.897 424.417 256.331 424.417C251.765 424.417 248.063 420.704 248.063 416.124C248.063 411.543 251.765 407.83 256.331 407.83C260.897 407.83 264.599 411.543 264.599 416.124Z" fill="#FFD134"/>
<path d="M285.269 416.124C285.269 420.704 281.568 424.417 277.001 424.417C272.435 424.417 268.733 420.704 268.733 416.124C268.733 411.543 272.435 407.83 277.001 407.83C281.568 407.83 285.269 411.543 285.269 416.124Z" fill="#E61A3F"/>
<path d="M244.337 381.902C288.638 381.902 326.123 366.724 338.619 345.82C343.176 338.197 335.872 330.555 327.012 330.555H244.337H161.662C152.801 330.555 145.497 338.197 150.054 345.82C162.55 366.724 200.036 381.902 244.337 381.902Z" fill="#BFCDFA"/>
<path d="M414.224 124.972C395.14 103.309 334.716 166.259 294.834 168.856L335.833 255.69L344.008 257.883C353.932 260.549 373.828 257.068 385.23 238.774C399.477 215.907 438.082 152.044 414.231 124.965L414.224 124.972Z" fill="#FFAB4B"/>
<path fill-rule="evenodd" clip-rule="evenodd" d="M403.613 206.641C402.19 198.483 397.534 177.258 385.722 162.173C377.09 151.153 366.777 143.726 359.616 139.43C383.196 125.32 404.3 113.709 414.224 124.972C430.414 143.357 417.825 178.692 403.613 206.641Z" fill="#1062FB"/>
<path d="M411.524 139.096C399.414 123.392 347.298 183.412 320.4 186.704L343.731 251.68C356.736 254.096 371.316 247.921 378.845 236.449C390.101 219.297 426.66 158.734 411.517 139.096H411.524Z" fill="#FFCE96"/>
<path d="M117.38 91.1821C141.405 75.2131 183.529 151.703 221.385 164.568L159.372 237.8H150.912C140.635 237.8 122.321 229.265 116.027 208.639C108.164 182.855 87.352 111.14 117.38 91.1821Z" fill="#FFAB4B"/>
<path fill-rule="evenodd" clip-rule="evenodd" d="M106.554 172.824C110.031 165.312 120.003 146.023 135.305 134.516C146.485 126.114 158.366 121.617 166.388 119.326C147.255 99.5774 129.864 82.8774 117.373 91.1822C96.9912 104.736 100.031 142.131 106.547 172.824H106.554Z" fill="#1062FB"/>
<path d="M116.346 105.529C132.099 93.5003 166.95 165.006 192.078 175.17L152.779 231.869C139.594 230.825 127.102 221.079 122.793 208.041C116.346 188.549 96.665 120.559 116.353 105.522L116.346 105.529Z" fill="#FFCE96"/>
<path d="M240.274 341.759C294.767 346.553 342.569 308.747 347.043 257.317C351.518 205.886 310.969 160.306 256.477 155.512C201.984 150.717 154.181 188.523 149.707 239.954C145.233 291.384 185.781 336.964 240.274 341.759Z" fill="#FFAB4B"/>
<path d="M225.878 182.684L232.331 184.195L242.487 225.557C244.384 233.297 254.985 234.23 258.197 226.94L275.34 187.979L281.956 187.618C286.724 187.353 290.96 184.477 292.953 180.14L298.366 168.384C294.646 166.289 290.768 164.418 286.744 162.779L281.243 174.744L266.863 175.532L251.917 208.14L242.828 173.417L228.802 170.13L225.451 157.393C221.213 158.298 217.07 159.464 213.052 160.878L216.352 173.4C217.567 178.02 221.242 181.592 225.892 182.685L225.878 182.684Z" fill="white"/>
<path d="M231.997 158.388L233.745 165.039L247.77 168.327L253.462 190.112L262.837 169.652L277.217 168.864L280.087 162.62L265.693 163.407L268.514 157.256C266.474 156.839 264.408 156.476 262.323 156.181L255.029 172.102L250.603 155.143C248.498 155.076 246.402 155.066 244.321 155.121L246.036 161.671L231.99 158.381L231.997 158.388Z" fill="white"/>
<path d="M160.565 260.772C160.309 259.561 159.635 258.523 158.699 257.827C157.325 256.804 155.423 256.567 153.674 257.549C146.832 261.384 137.304 268.555 129.58 279.637C128.671 280.939 128.705 282.547 129.254 283.786C129.809 285.025 131.009 286.139 132.682 286.173C132.89 286.173 133.195 286.334 133.39 286.661C133.577 286.974 133.48 287.113 133.466 287.134C131.683 289.362 129.483 292.459 127.498 296.058C126.443 297.973 126.971 299.971 128.157 301.307C129.323 302.616 131.204 303.409 133.168 303.11C133.924 302.992 134.687 302.908 135.437 302.867C135.645 302.853 135.756 302.901 135.812 302.936C135.874 302.971 135.916 303.027 135.943 303.089C135.992 303.208 136.02 303.472 135.735 303.785C134.729 304.885 134.653 306.319 135.152 307.447C135.645 308.561 136.714 309.452 138.095 309.612C138.921 309.709 139.823 309.87 140.773 310.099C145.069 321.182 153.598 330.976 165.111 339.03C183.362 351.797 209.254 360.318 238.352 362.872C267.45 365.427 294.424 361.543 314.605 352.145C327.353 346.207 337.457 338.035 343.606 327.85C344.466 327.802 345.278 327.809 346.028 327.85C347.409 327.927 348.623 327.238 349.296 326.228C349.983 325.198 350.157 323.778 349.359 322.518C349.13 322.156 349.206 321.899 349.275 321.794C349.31 321.731 349.366 321.69 349.428 321.669C349.491 321.641 349.609 321.62 349.81 321.669C350.538 321.843 351.274 322.059 352.003 322.302C353.883 322.943 355.875 322.483 357.249 321.397C358.651 320.284 359.511 318.411 358.811 316.343C357.485 312.452 355.854 309.013 354.48 306.514C354.48 306.514 354.397 306.333 354.633 306.062C354.876 305.776 355.209 305.672 355.41 305.707C357.062 305.971 358.436 305.08 359.199 303.952C359.956 302.832 360.268 301.252 359.602 299.811C353.911 287.552 345.771 278.829 339.699 273.859C338.144 272.592 336.236 272.495 334.702 273.26C333.689 273.769 332.863 274.632 332.398 275.732C329.074 273.922 325.354 272.369 321.316 271.019C303.467 265.06 278.678 262.895 251.454 260.521C250.08 260.403 248.699 260.278 247.311 260.159C245.923 260.041 244.542 259.916 243.168 259.797C215.951 257.396 191.162 255.21 172.557 257.967C168.248 258.607 164.23 259.512 160.572 260.758L160.565 260.772Z" fill="white"/>
<path d="M354.48 306.514C355.854 309.013 357.485 312.452 358.811 316.343C359.511 318.411 358.651 320.284 357.249 321.397C355.875 322.483 353.883 322.943 352.003 322.302C351.274 322.059 350.538 321.843 349.81 321.669C349.609 321.62 349.491 321.641 349.428 321.669C349.366 321.69 349.31 321.731 349.275 321.794C349.206 321.899 349.13 322.156 349.359 322.518C350.157 323.778 349.983 325.198 349.296 326.228C348.623 327.238 347.409 327.927 346.028 327.85C345.278 327.809 344.466 327.802 343.606 327.85C337.457 338.035 327.353 346.207 314.605 352.145C294.424 361.543 267.45 365.427 238.352 362.872C209.254 360.318 183.362 351.797 165.111 339.03C153.598 330.976 145.069 321.182 140.773 310.099C139.823 309.87 138.921 309.709 138.095 309.612C136.714 309.452 135.645 308.561 135.152 307.447C134.653 306.319 134.729 304.885 135.735 303.785C136.02 303.472 135.992 303.208 135.943 303.089C135.916 303.027 135.874 302.971 135.812 302.936C135.756 302.901 135.645 302.853 135.437 302.867C134.687 302.908 133.924 302.992 133.168 303.11C131.204 303.409 129.323 302.616 128.157 301.307C126.971 299.971 126.443 297.973 127.498 296.058C129.483 292.459 131.683 289.362 133.466 287.134C133.48 287.113 133.577 286.974 133.39 286.661C133.195 286.334 132.89 286.173 132.682 286.173C131.009 286.139 129.809 285.025 129.254 283.786C128.705 282.547 128.671 280.939 129.58 279.637C137.304 268.555 146.832 261.384 153.674 257.549C155.423 256.567 157.325 256.804 158.699 257.827C159.635 258.523 160.309 259.561 160.565 260.772L160.572 260.758C164.23 259.512 168.248 258.607 172.557 257.967C191.162 255.21 215.951 257.396 243.168 259.797C244.542 259.916 245.923 260.041 247.311 260.159C248.699 260.278 250.08 260.403 251.454 260.521C278.678 262.895 303.467 265.06 321.316 271.019C325.354 272.369 329.074 273.922 332.398 275.732C332.863 274.632 333.689 273.769 334.702 273.26C336.236 272.495 338.144 272.592 339.699 273.859C345.771 278.829 353.911 287.552 359.602 299.811C360.268 301.252 359.956 302.832 359.199 303.952C358.436 305.08 357.062 305.971 355.41 305.707C355.209 305.672 354.876 305.776 354.633 306.062C354.397 306.333 354.48 306.514 354.48 306.514ZM354.48 306.514L353.266 307.182" stroke="#DCDCDC" strokeWidth="4"/>
<path d="M352.953 307.169C352.197 305.79 353.772 304.071 355.32 304.314C357.312 304.628 358.887 302.219 358.033 300.388C352.447 288.352 344.452 279.79 338.512 274.931C336.284 273.114 333.217 274.708 333.064 277.583L333.05 277.862C315.028 267.141 283.085 264.705 246.888 261.531C210.503 258.335 178.484 255.161 158.907 262.721L158.955 262.303C159.302 259.442 156.554 257.333 154.049 258.739C147.359 262.491 138.005 269.529 130.419 280.41C129.261 282.066 130.392 284.712 132.411 284.753C133.98 284.781 135.229 286.751 134.25 287.976C132.508 290.148 130.357 293.183 128.414 296.706C126.977 299.316 129.719 302.163 132.654 301.711C133.445 301.586 134.257 301.502 135.055 301.453C136.908 301.349 137.706 303.34 136.45 304.711C135.277 305.992 136.228 308.011 137.949 308.213C139.039 308.338 140.253 308.568 141.523 308.93C151.967 337.13 190.642 357.31 238.165 361.48C285.722 365.657 327.325 352.493 342.468 326.514C343.668 326.409 344.792 326.402 345.806 326.458C347.534 326.556 348.824 324.732 347.887 323.27C346.888 321.704 348.019 319.88 349.824 320.304C350.608 320.485 351.385 320.715 352.148 320.973C354.966 321.933 358.158 319.601 357.194 316.782C355.896 312.974 354.3 309.612 352.96 307.169H352.953Z" fill="white"/>
<path d="M191.322 285.839C212.95 285.839 230.482 268.252 230.482 246.557C230.482 224.862 212.95 207.275 191.322 207.275C169.694 207.275 152.161 224.862 152.161 246.557C152.161 268.252 169.694 285.839 191.322 285.839Z" fill="#FFAB4B"/>
<path d="M304.702 295.787C326.33 295.787 343.862 278.2 343.862 256.505C343.862 234.81 326.33 217.222 304.702 217.222C283.074 217.222 265.542 234.81 265.542 256.505C265.542 278.2 283.074 295.787 304.702 295.787Z" fill="#FFAB4B"/>
<path d="M293.684 230.261C280.416 229.098 268.722 238.942 267.564 252.251L266.009 270.114C265.919 271.109 266.183 272.042 266.689 272.801C269.208 270.204 274.42 267.691 281.186 265.77C275.981 262.916 272.678 257.312 273.212 251.186C273.941 242.833 281.533 236.672 290.173 237.431C292.144 237.605 293.997 238.127 295.676 238.921C294.927 239.582 294.399 240.584 294.302 241.747C294.115 243.912 295.461 245.798 297.314 245.965C298.993 246.112 300.513 244.782 300.916 242.916C303.462 245.896 304.857 249.794 304.496 253.936C304.205 257.25 302.838 260.208 300.756 262.54C306.086 262.213 310.985 262.359 315.045 262.93L315.607 256.47C316.766 243.16 306.953 231.43 293.691 230.268L293.684 230.261Z" fill="white"/>
<path d="M300.902 242.909C300.499 244.775 298.979 246.105 297.3 245.958C295.447 245.798 294.101 243.905 294.288 241.74C294.392 240.577 294.913 239.575 295.662 238.914C293.983 238.12 292.13 237.598 290.159 237.424C281.519 236.665 273.927 242.826 273.199 251.179C272.664 257.305 275.967 262.902 281.172 265.763C285.204 264.621 289.777 263.696 294.67 263.09C296.738 262.832 298.764 262.651 300.735 262.533C302.817 260.208 304.191 257.243 304.476 253.929C304.836 249.787 303.442 245.882 300.895 242.909H300.902Z" fill="black"/>
<path d="M207.265 222.673C194.003 221.511 182.303 231.354 181.144 244.664L180.582 251.124C184.655 251.277 189.472 251.973 194.628 253.205C193.039 250.581 192.234 247.476 192.518 244.225C193.247 235.872 200.839 229.711 209.479 230.47C211.776 230.672 213.906 231.347 215.801 232.377C215.225 233.024 214.829 233.895 214.746 234.883C214.558 237.048 215.905 238.935 217.758 239.102C219.139 239.22 220.409 238.35 221.047 236.999C223.066 239.819 224.128 243.306 223.809 246.975C223.282 253.045 219.125 257.953 213.587 259.895C219.846 262.944 224.489 266.299 226.509 269.272C227.133 268.61 227.556 267.74 227.64 266.745L229.194 248.882C230.346 235.572 220.534 223.843 207.265 222.673Z" fill="white"/>
<path d="M223.802 246.975C224.121 243.299 223.059 239.819 221.04 236.999C220.409 238.35 219.132 239.227 217.751 239.102C215.898 238.942 214.551 237.048 214.739 234.883C214.822 233.895 215.218 233.018 215.794 232.377C213.906 231.347 211.769 230.672 209.472 230.47C200.832 229.711 193.24 235.872 192.511 244.225C192.227 247.476 193.032 250.581 194.621 253.205C196.571 253.672 198.569 254.214 200.596 254.834C205.363 256.303 209.763 258.036 213.566 259.888C219.111 257.946 223.261 253.038 223.788 246.968L223.802 246.975Z" fill="black"/>
<path d="M221.728 235.588C221.917 233.42 220.57 231.531 218.718 231.369C216.866 231.206 215.212 232.832 215.023 235C214.834 237.167 216.181 239.056 218.033 239.219C219.885 239.381 221.539 237.756 221.728 235.588Z" fill="white"/>
<path d="M314.098 221.343C312.967 221.343 311.822 221.037 310.795 220.39C303.217 215.649 294.057 213.602 291.163 213.22C287.741 212.76 285.333 209.607 285.791 206.168C286.249 202.729 289.4 200.32 292.821 200.78C297.679 201.427 308.324 204.052 317.422 209.746C320.351 211.577 321.246 215.447 319.421 218.392C318.234 220.299 316.194 221.35 314.105 221.35L314.098 221.343Z" fill="#EF952F"/>
<path d="M188.463 210.317C185.985 210.317 183.64 208.834 182.661 206.384C181.37 203.168 182.918 199.513 186.124 198.218C196.076 194.195 207.012 193.471 211.905 193.679C215.354 193.826 218.04 196.749 217.894 200.209C217.748 203.669 214.84 206.363 211.384 206.217C208.47 206.098 199.094 206.509 190.808 209.857C190.045 210.164 189.247 210.317 188.47 210.317H188.463Z" fill="#EF952F"/>
<path d="M248.283 247.761C224.48 245.673 203.494 263.334 201.412 287.218L287.617 294.784C289.699 270.907 272.093 249.857 248.283 247.768V247.761Z" fill="white"/>
<path d="M266.542 275.226C267.246 267.164 258.583 259.818 247.193 258.819C235.804 257.819 226.001 263.544 225.298 271.606C224.595 279.668 233.258 287.014 244.647 288.014C256.036 289.013 265.839 283.288 266.542 275.226Z" fill="black"/>
<path d="M257.751 266.432C257.974 263.866 253.269 261.357 247.24 260.828C241.211 260.298 236.142 261.95 235.919 264.516C235.695 267.082 240.401 269.591 246.429 270.12C252.458 270.649 257.527 268.998 257.751 266.432Z" fill="#3C3835"/>
<path fill-rule="evenodd" clip-rule="evenodd" d="M282.562 302.125C282.097 301.7 281.371 301.727 280.939 302.199C276.735 306.802 268.835 312.239 260.412 312.399C254.537 312.504 249.117 310.092 244.316 305.214C244.309 305.213 244.303 305.206 244.297 305.198C244.265 305.168 244.232 305.144 244.199 305.12C244.173 305.097 244.147 305.073 244.114 305.057C244.081 305.033 244.047 305.023 244.015 304.999C243.981 304.982 243.948 304.965 243.915 304.948C243.881 304.938 243.847 304.928 243.813 304.918C243.779 304.908 243.745 304.898 243.704 304.888C243.669 304.885 243.628 304.881 243.593 304.878C243.559 304.875 243.524 304.872 243.489 304.869C243.455 304.866 243.412 304.876 243.377 304.88C243.342 304.884 243.307 304.888 243.272 304.892C243.236 304.902 243.2 304.913 243.164 304.924C243.128 304.935 243.093 304.946 243.056 304.963C243.027 304.975 242.998 304.993 242.968 305.012C242.932 305.029 242.895 305.054 242.858 305.079C242.858 305.079 242.844 305.084 242.836 305.091C237.357 309.051 231.713 310.496 226.055 309.384C217.904 307.779 211.174 301.055 207.884 295.786C207.548 295.246 206.837 295.086 206.299 295.423C205.762 295.76 205.602 296.472 205.938 297.011C206.385 297.728 206.885 298.457 207.427 299.196C208.317 309.464 214.845 331.495 241.29 333.912C241.29 333.912 241.352 333.918 241.38 333.92L241.47 333.928C267.959 336.161 278.182 315.555 280.824 305.611C281.483 304.999 282.095 304.375 282.657 303.761C283.088 303.289 283.053 302.566 282.582 302.134L282.562 302.125Z" fill="black"/>
<path d="M241.275 333.9L241.455 333.916C252.666 334.86 260.953 331.706 266.997 327.014C263.22 320.543 254.088 315.473 243.061 314.502C232.033 313.532 222.165 316.931 217.327 322.645C222.469 328.328 230.085 332.874 241.289 333.901L241.275 333.9Z" fill="#FFA0AC"/>
</g>
<defs>
<clipPath id="clip0_267_2314">
<rect x="76" y="76" width="365" height="365" rx="8" fill="white"/>
</clipPath>
</defs>
</svg>
