<svg width="80" height="81" viewBox="0 0 80 81" fill="none" xmlns="http://www.w3.org/2000/svg">
<path d="M75.32 15.6901V16.6597C75.32 16.3365 75.32 16.0032 75.29 15.6901H75.32Z" fill="#390297"/>
<path d="M76.7998 68.8504H38.2498C36.4898 68.8504 35.0498 67.4038 35.0498 65.6133V29.8527C35.0498 28.0723 36.4798 26.6156 38.2498 26.6156H38.8098V18.9273C38.8098 14.6077 40.2098 10.541 42.8698 7.16222C46.4498 2.60996 51.7898 0 57.5198 0C63.2498 0 68.5998 2.60996 72.1798 7.16222C74.8398 10.541 76.2398 14.6077 76.2398 18.9273V26.6156H76.7998C78.5598 26.6156 79.9998 28.0622 79.9998 29.8527V65.6133C79.9998 67.3937 78.5698 68.8504 76.7998 68.8504ZM38.2498 28.2544C37.3798 28.2544 36.6698 28.9726 36.6698 29.8527V65.6133C36.6698 66.4934 37.3798 67.2116 38.2498 67.2116H76.7998C77.6698 67.2116 78.3798 66.4934 78.3798 65.6133V29.8527C78.3798 28.9726 77.6698 28.2544 76.7998 28.2544H74.6198V18.9273C74.6198 14.982 73.3398 11.2593 70.9098 8.17384C67.6398 4.01611 62.7598 1.63881 57.5198 1.63881C52.2798 1.63881 47.3998 4.02622 44.1298 8.18395C41.7098 11.2694 40.4198 14.982 40.4198 18.9374V28.2645H38.2398L38.2498 28.2544ZM70.7498 28.2442H44.2898V19.3421C44.2898 16.287 45.2798 13.414 47.1498 11.0266C49.6798 7.80966 53.4598 5.96852 57.5098 5.96852C61.5598 5.96852 65.3498 7.80966 67.8698 11.0266C69.7498 13.414 70.7398 16.287 70.7398 19.3421V28.2442H70.7498ZM45.9098 26.6054H69.1298V19.3421C69.1298 16.6613 68.2598 14.1322 66.6098 12.0483C64.3898 9.22591 61.0798 7.60733 57.5098 7.60733C53.9398 7.60733 50.6398 9.22591 48.4198 12.0483C46.7798 14.1424 45.9098 16.6613 45.9098 19.3421V26.6054Z" fill="#390297"/>
<path d="M60.8498 44.6932L62.2498 57.3789H52.7998L54.1998 44.6932C53.3298 43.8334 52.7998 42.6194 52.7998 41.2942C52.7998 38.6539 54.9098 36.5093 57.5298 36.5093C60.1498 36.5093 62.2598 38.6539 62.2598 41.2942C62.2598 42.6194 61.7198 43.8232 60.8598 44.6932H60.8498Z" fill="#FF6456"/>
<path d="M48.9 50.5604H1.75C1.19772 50.5604 0.75 51.0133 0.75 51.572V79.0879C0.75 79.6466 1.19772 80.0995 1.75 80.0995H48.9C49.4523 80.0995 49.9 79.6466 49.9 79.0879V51.572C49.9 51.0133 49.4523 50.5604 48.9 50.5604Z" fill="white"/>
<path d="M48.9 80.8583H1.75C0.79 80.8583 0 80.0591 0 79.088V51.5721C0 50.6009 0.79 49.8018 1.75 49.8018H48.9C49.86 49.8018 50.65 50.6009 50.65 51.5721V79.088C50.65 80.0591 49.86 80.8583 48.9 80.8583ZM1.75 51.3192C1.61 51.3192 1.5 51.4305 1.5 51.5721V79.088C1.5 79.2296 1.61 79.3409 1.75 79.3409H48.9C49.04 79.3409 49.15 79.2296 49.15 79.088V51.5721C49.15 51.4305 49.04 51.3192 48.9 51.3192H1.75Z" fill="#390297"/>
<path d="M12.9799 65.9976H7.91992C7.36764 65.9976 6.91992 66.4505 6.91992 67.0092V70.7016C6.91992 71.2603 7.36764 71.7132 7.91992 71.7132H12.9799C13.5322 71.7132 13.9799 71.2603 13.9799 70.7016V67.0092C13.9799 66.4505 13.5322 65.9976 12.9799 65.9976Z" fill="#FF6456"/>
<path d="M49.9 57.0751H0.75V61.1215H49.9V57.0751Z" fill="#390297"/>
</svg>
