<?xml version="1.0" encoding="utf-8"?>
<!-- Generator: Adobe Illustrator 19.2.1, SVG Export Plug-In . SVG Version: 6.00 Build 0)  -->
<svg version="1.1" id="layer" xmlns="http://www.w3.org/2000/svg" xmlns:xlink="http://www.w3.org/1999/xlink" x="0px" y="0px"
	 viewBox="0 0 652 652" style="enable-background:new 0 0 652 652;" xml:space="preserve">
<style type="text/css">
	.st0{fill:#23A47F;}
</style>
<path class="st0" d="M73.1,302.2c0,5.9-2.5,11.1-6.6,15.1c-4.5,4.5-11.1,5.7-11.1,9.5c0,5.2,8.4,3.6,16.4,11.6
	c5.3,5.3,8.6,12.3,8.6,20.5c0,16.1-12.9,28.8-29.1,28.8S22.4,375,22.4,358.9c0-8.1,3.3-15.1,8.6-20.5c8-8,16.4-6.4,16.4-11.6
	c0-3.8-6.6-5-11.1-9.5c-4.1-4.1-6.6-9.3-6.6-15.4c0-11.8,9.6-21.3,21.4-21.3c2.3,0,4.3,0.3,6,0.3c3.1,0,4.6-1.4,4.6-3.5
	c0-1.2-0.6-2.8-0.6-4.5c0-3.8,3.3-7,7.2-7c4,0,7.1,3.3,7.1,7.2c0,4.2-3.3,6.1-5.8,7c-2,0.7-3.6,1.6-3.6,3.6
	C66.1,287.7,73.1,291.4,73.1,302.2z M70.9,358.9c0-11.2-8.3-20.2-19.4-20.2s-19.4,9-19.4,20.2c0,11.1,8.3,20.2,19.4,20.2
	S70.9,370,70.9,358.9z M64.2,302c0-7.1-5.8-13-12.8-13s-12.8,5.9-12.8,13s5.8,13,12.8,13S64.2,309.1,64.2,302z M113.8,281.8
	c3.6,0,6.3,2.7,6.3,6.1s-2.6,6.1-6.2,6.1c-3.7,0-5.8-2.4-9.5-2.4c-3.6,0-6.4,2.6-6.4,7v35.6c0,2.7-2.1,4.9-4.9,4.9
	c-2.6,0-4.7-2.1-4.7-4.9v-47.9c0-2.7,2.1-4.9,4.7-4.9c4.9,0,4,4.6,8.8,4.6C106.6,286.1,108.3,281.8,113.8,281.8z M124.4,310.3
	c0-17.1,11.8-29.4,27.9-29.4c14.8,0,26.6,10.9,26.6,25.7c0,3.5-2.3,5.9-5.5,5.9h-36.7c-1.6,0-2.1,0.6-2.1,1.8c0,2.8,2.3,8,5.7,11.4
	s8,5.4,14.6,5.4c4.9,0,9.2-1.8,12.4-4.2c1-0.8,2.1-1.2,3.3-1.2c2.4,0,4.3,2.1,4.3,4.4c0,1.4-0.5,2.5-1.6,3.5
	c-4.7,4-11.4,6.1-18.7,6.1C136.9,339.7,124.4,327.1,124.4,310.3z M164.4,294c-3.2-3.2-7.2-4.7-12.1-4.7c-4.9,0-9.4,1.9-12.7,5.2
	c-2.6,2.6-4.4,6-4.4,8.3c0,1.1,0.7,1.6,2.1,1.6h29.4c1.4,0,2-0.5,2-1.6C168.8,300,166.6,296.3,164.4,294z M188.6,310.3
	c0-17.1,11.8-29.4,27.9-29.4c14.8,0,26.6,10.9,26.6,25.7c0,3.5-2.3,5.9-5.5,5.9h-36.7c-1.6,0-2.1,0.6-2.1,1.8c0,2.8,2.3,8,5.7,11.4
	s8,5.4,14.6,5.4c4.9,0,9.2-1.8,12.4-4.2c1-0.8,2.1-1.2,3.3-1.2c2.4,0,4.3,2.1,4.3,4.4c0,1.4-0.5,2.5-1.6,3.5
	c-4.7,4-11.4,6.1-18.7,6.1C201.1,339.7,188.6,327.1,188.6,310.3z M228.6,294c-3.2-3.2-7.2-4.7-12.1-4.7c-4.9,0-9.4,1.9-12.7,5.2
	c-2.6,2.6-4.4,6-4.4,8.3c0,1.1,0.7,1.6,2.1,1.6H231c1.4,0,2-0.5,2-1.6C233,300,230.8,296.3,228.6,294z M299.7,339.2
	c-2.7,0-4.9-2.1-4.9-4.9v-30.7c0-8-6.3-14.1-14.5-14.1c-8.3,0-14.6,6.2-14.6,14.1v30.7c0,2.7-2.1,4.9-4.9,4.9
	c-2.6,0-4.7-2.1-4.7-4.9v-48c0-2.6,2.1-4.7,4.6-4.7c4.7,0,4.5,4.3,7,4.3s5.9-4.9,14.7-4.9c12.3,0,21.9,10.3,21.9,22.6v30.7
	C304.4,337,302.3,339.2,299.7,339.2z M364.6,339.2c-2.7,0-4.9-2.1-4.9-4.9v-30.7c0-8-6.3-14.1-14.5-14.1c-8.3,0-14.6,6.2-14.6,14.1
	v30.7c0,2.7-2.1,4.9-4.9,4.9c-2.6,0-4.7-2.1-4.7-4.9v-76.2c0-2.7,2.1-4.9,4.7-4.9c2.7,0,4.9,2.1,4.9,4.9v25c0,1.4,0.6,2.1,2,2.1
	c2.5,0,5.9-4.3,14.7-4.3c12.3,0,21.9,10.3,21.9,22.6v30.7C369.3,337,367.2,339.2,364.6,339.2z M382.5,310.3
	c0-16.4,13.1-29.4,29.6-29.4c16.5,0,29.6,13,29.6,29.4s-13.1,29.4-29.6,29.4C395.6,339.7,382.5,326.7,382.5,310.3z M432.2,310.3
	c0-11.4-8.5-20.8-20-20.8c-11.4,0-19.9,9.4-19.9,20.8c0,11.4,8.5,20.8,19.9,20.8C423.7,331.1,432.2,321.7,432.2,310.3z M459.7,281.5
	c2.7,0,4.9,2.1,4.9,4.9v30.7c0,8,6.3,14.1,14.5,14.1c8.3,0,14.6-6.2,14.6-14.1v-30.7c0-2.7,2.1-4.9,4.9-4.9c2.6,0,4.7,2.1,4.7,4.9
	v48c0,2.6-2.1,4.7-4.6,4.7c-4.7,0-4.5-4.3-7-4.3s-5.9,4.9-14.7,4.9c-12.3,0-21.9-10.3-21.9-22.6v-30.7
	C455,283.6,457.1,281.5,459.7,281.5z M520.3,335.5c-2.1-1.4-3.6-2.7-3.6-5.3c0-2.5,1.9-4.4,4.3-4.4c2.8,0,4.1,1.7,6.4,2.9
	c2.9,1.7,6.3,2.6,10.5,2.6c7.7,0,11.5-3.5,11.5-7.8c0-6.1-5.7-7.2-13.3-9.3c-9.5-2.5-18.7-5.3-18.7-16.3c0-9.7,7.5-17.1,20.7-17.1
	c5.2,0,10.1,1.4,13.9,3.7c1.4,0.8,2.7,2.5,2.7,4.4c0,2.5-2,4.6-4.6,4.6c-1.7,0-3.1-1.1-4.7-2.3c-1.7-1.1-4.2-2.1-7.6-2.1
	c-7.6,0-10.9,3.3-10.9,7.7c0,5.8,5.5,7.1,13.5,9c9.3,2.3,18.4,5.2,18.4,16.4c0,9.7-7.2,17.3-21.1,17.3
	C530.9,339.7,524.8,338.4,520.3,335.5z M567.9,310.3c0-17.1,11.8-29.4,27.9-29.4c14.8,0,26.6,10.9,26.6,25.7c0,3.5-2.3,5.9-5.5,5.9
	h-36.7c-1.6,0-2.1,0.6-2.1,1.8c0,2.8,2.3,8,5.7,11.4s8,5.4,14.6,5.4c4.9,0,9.2-1.8,12.4-4.2c1-0.8,2.1-1.2,3.3-1.2
	c2.4,0,4.3,2.1,4.3,4.4c0,1.4-0.5,2.5-1.6,3.5c-4.7,4-11.4,6.1-18.7,6.1C580.5,339.7,567.9,327.1,567.9,310.3z M607.9,294
	c-3.2-3.2-7.2-4.7-12.1-4.7s-9.4,1.9-12.7,5.2c-2.6,2.6-4.4,6-4.4,8.3c0,1.1,0.7,1.6,2.1,1.6h29.4c1.4,0,2-0.5,2-1.6
	C612.3,300,610.2,296.3,607.9,294z"/>
</svg>
