<svg width="80" height="80" viewBox="0 0 80 80" fill="none" xmlns="http://www.w3.org/2000/svg">
<path d="M27.3702 58.36L25.2402 54.71H25.2502L27.3702 58.36Z" fill="#7545ED"/>
<path d="M19.7603 38.2099H19.7803L19.8203 38.1799L19.7703 38.2099H19.7603ZM60.8203 38.1799L60.8603 38.2199H60.8803L60.8203 38.1799Z" fill="#7545ED"/>
<path d="M40.7001 0.859985H39.8801C39.7033 0.859985 39.5601 1.00325 39.5601 1.17999V18.03C39.5601 18.2067 39.7033 18.35 39.8801 18.35H40.7001C40.8768 18.35 41.0201 18.2067 41.0201 18.03V1.17999C41.0201 1.00325 40.8768 0.859985 40.7001 0.859985Z" fill="#FF6456"/>
<path d="M54.3965 3.30157L48.5513 19.3609C48.4909 19.527 48.5765 19.7106 48.7426 19.7711L49.5131 20.0515C49.6792 20.112 49.8628 20.0263 49.9233 19.8603L55.7684 3.80092C55.8289 3.63485 55.7432 3.45122 55.5772 3.39077L54.8066 3.11032C54.6405 3.04987 54.4569 3.1355 54.3965 3.30157Z" fill="#FF6456"/>
<path d="M54.7399 27.71L54.1099 27.18C53.9799 27.07 53.9599 26.87 54.0699 26.73L67.5199 10.59C67.6299 10.46 67.8299 10.44 67.9699 10.55L68.5999 11.08C68.7299 11.19 68.7499 11.39 68.6399 11.53L55.1899 27.67C55.0799 27.8 54.8799 27.82 54.7399 27.71Z" fill="#FF6456"/>
<path d="M75.2698 23.1415L62.5652 30.4765C62.4122 30.5648 62.3597 30.7606 62.4481 30.9136L62.8581 31.6237C62.9465 31.7768 63.1422 31.8292 63.2952 31.7409L75.9998 24.4059C76.1529 24.3175 76.2053 24.1218 76.1169 23.9687L75.7069 23.2586C75.6186 23.1055 75.4229 23.0531 75.2698 23.1415Z" fill="#FF6456"/>
<path d="M4.85516 23.2561L4.44516 23.9663C4.35679 24.1193 4.40923 24.315 4.56228 24.4034L17.2755 31.7434C17.4286 31.8318 17.6243 31.7793 17.7127 31.6263L18.1227 30.9161C18.211 30.7631 18.1586 30.5674 18.0055 30.479L5.29228 23.139C5.13923 23.0506 4.94352 23.1031 4.85516 23.2561Z" fill="#FF6456"/>
<path d="M12.6018 10.5451L11.9736 11.0721C11.8383 11.1857 11.8206 11.3876 11.9342 11.523L25.4777 27.6635C25.5913 27.7989 25.7932 27.8166 25.9286 27.703L26.5567 27.1759C26.6921 27.0623 26.7098 26.8604 26.5962 26.7251L13.0526 10.5845C12.939 10.4491 12.7372 10.4315 12.6018 10.5451Z" fill="#FF6456"/>
<path d="M25.7685 3.10607L24.998 3.38653C24.8319 3.44697 24.7463 3.6306 24.8067 3.79667L30.6518 19.856C30.7123 20.0221 30.8959 20.1077 31.062 20.0473L31.8325 19.7668C31.9986 19.7064 32.0842 19.5227 32.0238 19.3567L26.1787 3.29732C26.1182 3.13125 25.9346 3.04562 25.7685 3.10607Z" fill="#FF6456"/>
<path d="M40.7001 0.859985H39.8801C39.7033 0.859985 39.5601 1.00325 39.5601 1.17999V23.91C39.5601 24.0867 39.7033 24.23 39.8801 24.23H40.7001C40.8768 24.23 41.0201 24.0867 41.0201 23.91V1.17999C41.0201 1.00325 40.8768 0.859985 40.7001 0.859985Z" fill="#FF6456"/>
<path d="M69.4899 46.62C69.4899 46.62 69.4899 46.58 69.4899 46.56C69.4899 46.56 69.4899 46.51 69.4799 46.49C69.4799 46.49 69.4799 46.47 69.4799 46.46C69.4799 46.44 69.4599 46.41 69.4599 46.39C69.4599 46.38 69.4599 46.37 69.4399 46.36C69.4399 46.34 69.4199 46.32 69.4099 46.3C69.4099 46.28 69.3899 46.26 69.3799 46.25L69.3399 46.19C69.3399 46.19 69.3099 46.16 69.2899 46.14L61.4599 37.7C61.4599 37.7 61.4499 37.68 61.4399 37.68L61.3999 37.64C61.3499 37.59 61.2799 37.54 61.2099 37.5L50.9899 31.99C50.8799 31.93 50.7399 31.89 50.6199 31.89H30.0399C29.9099 31.89 29.7799 31.92 29.6599 31.99L19.4399 37.5C19.3799 37.54 19.3099 37.58 19.2599 37.64L19.2199 37.68C19.2199 37.68 19.2099 37.69 19.1999 37.7L11.3499 46.16C11.3499 46.16 11.3299 46.18 11.3299 46.19C11.3199 46.2 11.2999 46.22 11.2899 46.24C11.2899 46.25 11.2699 46.27 11.2599 46.29C11.2499 46.31 11.2399 46.33 11.2299 46.34C11.2299 46.36 11.2099 46.38 11.1999 46.4C11.1799 46.46 11.1599 46.52 11.1499 46.59V46.61C11.1499 46.61 11.1499 46.64 11.1499 46.66C11.1499 46.68 11.1499 46.69 11.1499 46.71C11.1499 46.73 11.1499 46.76 11.1499 46.77C11.1499 46.77 11.1499 46.85 11.1699 46.88C11.1699 46.89 11.1699 46.91 11.1699 46.92L11.1999 47C11.1999 47 11.2099 47.02 11.2199 47.04L11.2399 47.09C11.2399 47.09 11.2399 47.11 11.2599 47.12C11.2599 47.12 11.2699 47.14 11.2799 47.15C11.2899 47.18 11.3199 47.2 11.3399 47.23L39.6999 79.6C39.7299 79.64 39.7599 79.67 39.7999 79.7C39.7999 79.7 39.8199 79.71 39.8299 79.72C39.8299 79.72 39.8499 79.73 39.8599 79.74C39.8899 79.76 39.9199 79.78 39.9599 79.79C39.9699 79.79 39.9899 79.8 40.0099 79.81C40.0099 79.81 40.0099 79.81 40.0199 79.81C40.0199 79.81 40.0399 79.81 40.0499 79.81C40.1199 79.84 40.1899 79.85 40.2499 79.86H40.3699H40.3799H40.3999C40.4699 79.86 40.5499 79.83 40.6099 79.81C40.6099 79.81 40.6199 79.81 40.6299 79.81C40.6299 79.81 40.6299 79.81 40.6399 79.81C40.6599 79.81 40.6699 79.8 40.6899 79.79C40.7099 79.78 40.7199 79.77 40.7399 79.76C40.7399 79.76 40.7599 79.75 40.7699 79.74C40.7699 79.74 40.7899 79.73 40.7899 79.72C40.7899 79.72 40.7999 79.72 40.8099 79.7L40.8799 79.63L69.2599 47.25C69.3199 47.19 69.3599 47.11 69.3999 47.03C69.4099 47 69.4199 46.98 69.4299 46.94C69.4299 46.93 69.4299 46.91 69.4299 46.9C69.4299 46.88 69.4299 46.87 69.4299 46.85C69.4299 46.85 69.4299 46.81 69.4299 46.8C69.4299 46.8 69.4299 46.75 69.4299 46.72C69.4299 46.69 69.4299 46.68 69.4299 46.66L69.4899 46.62ZM60.8699 38.21H60.8499L60.8099 38.18L60.8699 38.21ZM30.2299 33.46H50.3899L59.1699 38.19L50.3999 42.68H30.2299L21.4599 38.19L30.2299 33.46ZM53.6399 53.32H26.9899L30.5799 44.28H50.0599L53.6499 53.32H53.6399ZM19.8099 38.18L19.7699 38.22H19.7499L19.7999 38.18H19.8099ZM19.9499 39.2L29.0299 43.86L25.3999 52.99L13.1999 46.46L19.9399 39.19L19.9499 39.2ZM15.0799 49.27L15.3899 49.44L25.2399 54.71L27.3599 58.36L35.2699 71.97L15.0799 49.27ZM40.3099 77.49L27.1899 54.91H53.4299L40.3099 77.49ZM45.3399 71.98L55.3799 54.7L65.2299 49.43L65.5599 49.26L45.3499 71.98H45.3399ZM55.2199 52.99L51.5899 43.86L60.6799 39.2L67.4199 46.47L55.2199 53V52.99Z" fill="#390297"/>
</svg>
