<svg width="80" height="80" viewBox="0 0 80 80" fill="none" xmlns="http://www.w3.org/2000/svg">
<path d="M78.1301 12.12H70.6801C69.9201 12.12 69.3101 12.74 69.3101 13.49V68.9C69.3101 69.66 69.9301 70.27 70.6801 70.27H78.1301C78.8901 70.27 79.5001 69.65 79.5001 68.9V13.5C79.5001 12.74 78.8801 12.13 78.1301 12.13V12.12ZM77.8901 68.67H70.9101V38.96H77.8901V68.67ZM77.8901 37.35H70.9101V13.73H77.8901V37.36V37.35Z" fill="#390297"/>
<path d="M64.4802 25.6H57.0302C56.2702 25.6 55.6602 26.22 55.6602 26.97V62.77C55.6602 63.53 56.2802 64.14 57.0302 64.14H64.4802C65.2402 64.14 65.8502 63.52 65.8502 62.77V26.97C65.8502 26.21 65.2302 25.6 64.4802 25.6ZM64.2402 62.54H57.2602V40.37H64.2402V62.54ZM57.2602 38.76V27.22H64.2402V38.76H57.2602Z" fill="#390297"/>
<path d="M43.4399 54.63V54.95H50.4199V54.63H43.4399Z" fill="#390297"/>
<path d="M50.6501 8.34003H43.2001C42.4401 8.34003 41.8301 8.96003 41.8301 9.71003V54.86C41.8301 55.62 42.4501 56.23 43.2001 56.23H50.6501C51.4101 56.23 52.0201 55.61 52.0201 54.86V9.71003C52.0201 8.95003 51.4001 8.34003 50.6501 8.34003ZM50.4101 54.95H43.4301V40.36H50.4101V54.95ZM43.4301 38.75V9.95003H50.4101V38.75H43.4301Z" fill="#390297"/>
<path d="M50.6501 56.24H43.2001C42.4401 56.24 41.8301 55.62 41.8301 54.87V55.19C41.8301 55.95 42.4501 56.56 43.2001 56.56H50.6501C51.4101 56.56 52.0201 55.94 52.0201 55.19V54.87C52.0201 55.63 51.4001 56.24 50.6501 56.24Z" fill="#390297"/>
<path d="M36.82 1.26001H29.37C28.61 1.26001 28 1.88001 28 2.63001V77.82C28 78.58 28.62 79.19 29.37 79.19H36.82C37.58 79.19 38.19 78.57 38.19 77.82V2.64001C38.19 1.88001 37.57 1.27001 36.82 1.27001V1.26001ZM36.58 77.59H29.6V40.36H36.58V77.59ZM29.6 38.75V2.87001H36.58V38.75H29.6Z" fill="#390297"/>
<path d="M22.9899 22.79H15.5399C14.7799 22.79 14.1699 23.41 14.1699 24.16V72.67C14.1699 73.43 14.7899 74.04 15.5399 74.04H22.9899C23.7499 74.04 24.3599 73.42 24.3599 72.67V24.16C24.3599 23.4 23.7399 22.79 22.9899 22.79ZM22.7499 72.43H15.7699V40.36H22.7499V72.43ZM15.7699 38.75V24.4H22.7499V38.75H15.7699Z" fill="#390297"/>
<path d="M11.4201 6.72998H9.81006V78.39H11.4201V6.72998Z" fill="#390297"/>
<path d="M7.72 6.58002H0.5V8.35002H7.72V6.58002Z" fill="#390297"/>
<path d="M7.72 41.59H0.5V43.36H7.72V41.59Z" fill="#390297"/>
<path d="M7.72 24.08H0.5V25.85H7.72V24.08Z" fill="#390297"/>
<path d="M7.72 59.09H0.5V60.86H7.72V59.09Z" fill="#390297"/>
<path d="M7.72 76.59H0.5V78.36H7.72V76.59Z" fill="#390297"/>
<path d="M76.97 21.54C76.97 22.94 75.84 24.07 74.44 24.07C73.99 24.07 73.57 23.95 73.21 23.75L63.08 32.97C63.22 33.28 63.29 33.63 63.29 33.99C63.29 35.39 62.16 36.52 60.76 36.52C59.36 36.52 58.23 35.39 58.23 33.99C58.23 33.97 58.23 33.94 58.23 33.92L48.9 30.51C48.44 31.09 47.72 31.46 46.92 31.46C45.52 31.46 44.39 30.33 44.39 28.93C44.39 28.43 44.54 27.96 44.79 27.57L33.97 14.14C33.7 14.24 33.4 14.3 33.09 14.3C32.84 14.3 32.6 14.26 32.37 14.2L21.3 29.97C21.61 30.39 21.79 30.91 21.79 31.47C21.79 32.87 20.66 34 19.26 34C17.86 34 16.73 32.87 16.73 31.47C16.73 30.07 17.86 28.94 19.26 28.94C19.51 28.94 19.75 28.98 19.98 29.04L31.05 13.27C30.74 12.85 30.56 12.33 30.56 11.77C30.56 10.37 31.69 9.23999 33.09 9.23999C34.49 9.23999 35.62 10.37 35.62 11.77C35.62 12.27 35.47 12.74 35.22 13.13L46.04 26.56C46.31 26.46 46.61 26.4 46.92 26.4C48.32 26.4 49.45 27.53 49.45 28.93C49.45 28.95 49.45 28.98 49.45 29L58.78 32.41C59.24 31.83 59.96 31.46 60.76 31.46C61.21 31.46 61.63 31.58 61.99 31.78L72.12 22.56C71.98 22.25 71.91 21.9 71.91 21.54C71.91 20.14 73.04 19.01 74.44 19.01C75.84 19.01 76.97 20.14 76.97 21.54Z" fill="#FF6456"/>
</svg>
