<svg xmlns="http://www.w3.org/2000/svg" width="144" height="23" viewBox="0 0 144 23" fill="none"><g clip-path="url(#clip0_731_14501)"><path d="M26.3485 0L14.6348 1.67796L13.5561 4.69828L12.4774 1.67796L0.763672 0L4.67891 10.9147L9.48905 11.6039L13.5581 23L17.6271 11.6039L22.4353 10.9147L26.3485 0ZM22.4832 4.69628L17.6631 5.38744L16.886 7.56679L21.7022 6.87763L20.9191 9.06097L16.107 9.75013L13.5541 16.8994L11.0012 9.75013L6.18907 9.06097L5.40602 6.87763L10.2222 7.56679L9.4451 5.38744L4.62497 4.69628L3.84192 2.51294L10.9593 3.5337L13.5541 10.8009L16.1489 3.5337L23.2663 2.51294L22.4832 4.69628Z" fill="#1062FB"></path><path d="M28.6426 10.687C28.6426 9.96583 28.7245 9.23872 28.8863 8.50561C29.0501 7.7725 29.3257 7.0334 29.7153 6.28432C30.1048 5.53723 30.5862 4.87603 31.1575 4.30473C31.7288 3.73142 32.4639 3.262 33.3668 2.89844C34.2677 2.53488 35.2665 2.3511 36.3652 2.3511C37.1622 2.3511 37.9033 2.439 38.5885 2.61279C39.2736 2.78657 39.8649 3.02029 40.3603 3.30994C40.8557 3.59958 41.3052 3.93917 41.7067 4.33069C42.1082 4.72022 42.4378 5.12373 42.6955 5.53523C42.9532 5.94673 43.1709 6.3802 43.3507 6.82965C43.5285 7.27911 43.6603 7.6906 43.7422 8.06215C43.8241 8.4337 43.876 8.79126 43.898 9.13285H41.3771C41.2872 7.66863 40.7958 6.52602 39.9029 5.70302C39.01 4.88003 37.8793 4.47052 36.509 4.47052C35.7799 4.47052 35.0887 4.61035 34.4375 4.89001C33.7863 5.16967 33.213 5.56519 32.7176 6.07857C32.2222 6.59194 31.8307 7.24515 31.5391 8.03818C31.2494 8.83122 31.1036 9.71414 31.1036 10.689C31.1036 11.6638 31.2514 12.5067 31.545 13.2838C31.8387 14.0608 32.2362 14.7021 32.7396 15.2035C33.243 15.7068 33.8203 16.0924 34.4755 16.364C35.1307 16.6357 35.8298 16.7716 36.5749 16.7716C37.9453 16.7716 39.0699 16.386 39.9528 15.615C40.8337 14.8439 41.3092 13.7792 41.3751 12.4228H43.896C43.866 12.9502 43.7722 13.4855 43.6124 14.0289C43.4525 14.5722 43.1869 15.1395 42.8193 15.7348C42.4498 16.3301 41.9983 16.8554 41.461 17.3129C40.9256 17.7703 40.2265 18.1479 39.3655 18.4455C38.5046 18.7431 37.5457 18.891 36.489 18.891C35.4323 18.891 34.3736 18.7112 33.4627 18.3496C32.5498 17.9901 31.8027 17.5246 31.2194 16.9573C30.6362 16.39 30.1448 15.7368 29.7452 15.0017C29.3437 14.2666 29.0601 13.5375 28.8943 12.8164C28.7285 12.0952 28.6446 11.3861 28.6446 10.687H28.6426Z" fill="black"></path><path d="M45.0361 12.5886C45.0361 11.434 45.2958 10.3793 45.8172 9.42048C46.3385 8.46364 47.0577 7.71056 47.9766 7.16322C48.8954 6.61589 49.9122 6.34222 51.0268 6.34222C52.1415 6.34222 53.1503 6.61589 54.0651 7.16322C54.982 7.71056 55.7011 8.46164 56.2265 9.42048C56.7519 10.3773 57.0135 11.434 57.0135 12.5886C57.0135 13.7432 56.7539 14.8019 56.2325 15.7668C55.7111 16.7316 54.99 17.4907 54.0711 18.052C53.1522 18.6113 52.1355 18.8909 51.0268 18.8909C49.9182 18.8909 48.8954 18.6113 47.9766 18.05C47.0577 17.4907 46.3385 16.7296 45.8172 15.7668C45.2978 14.8059 45.0361 13.7472 45.0361 12.5886ZM47.3214 12.5886C47.3214 13.8031 47.6749 14.8559 48.3801 15.7468C49.0872 16.6377 49.9681 17.0831 51.0228 17.0831C52.0776 17.0831 52.9405 16.6377 53.6536 15.7468C54.3668 14.8559 54.7243 13.8031 54.7243 12.5886C54.7243 11.3741 54.3668 10.3553 53.6536 9.49239C52.9405 8.62744 52.0616 8.19597 51.0228 8.19597C49.9841 8.19597 49.0852 8.62744 48.3801 9.49239C47.6749 10.3573 47.3214 11.3881 47.3214 12.5886Z" fill="black"></path><path d="M58.0265 12.4988C58.0265 11.4161 58.2702 10.4014 58.7576 9.45451C59.245 8.50767 59.9102 7.75259 60.7531 7.18927C61.5961 6.62596 62.509 6.3423 63.4898 6.3423C64.0411 6.3423 64.5585 6.43419 65.0459 6.61996C65.5333 6.80574 65.9508 7.05144 66.3004 7.36306C66.65 7.67268 66.9436 7.9903 67.1813 8.3119C67.419 8.63351 67.6188 8.9711 67.7826 9.32467V2.61884H70.0678V18.6114H67.7826V15.9546C67.411 16.8096 66.8717 17.5147 66.1645 18.064C65.4594 18.6154 64.6184 18.891 63.6436 18.891C62.8706 18.891 62.1335 18.7132 61.4303 18.3597C60.7272 18.0061 60.1299 17.5387 59.6345 16.9574C59.1391 16.3761 58.7476 15.6969 58.4579 14.9179C58.1683 14.1408 58.0225 13.3338 58.0225 12.4988H58.0265ZM60.3117 12.5208C60.3117 13.2659 60.4635 13.987 60.7631 14.6841C61.0628 15.3813 61.5122 15.9666 62.1075 16.44C62.7028 16.9134 63.3739 17.1491 64.125 17.1491C64.8302 17.1491 65.4714 16.9414 66.0427 16.5279C66.614 16.1144 67.0555 15.5731 67.3631 14.9079C67.6727 14.2407 67.8265 13.5236 67.8265 12.7565C67.8265 12.2052 67.7406 11.6558 67.5708 11.1065C67.399 10.5592 67.1593 10.0578 66.8517 9.60233C66.5421 9.14689 66.1446 8.78133 65.6532 8.50167C65.1618 8.22201 64.6244 8.08218 64.0351 8.08218C63.33 8.08218 62.6868 8.29992 62.1055 8.73739C61.5242 9.17286 61.0807 9.72818 60.7731 10.4034C60.4635 11.0785 60.3097 11.7837 60.3097 12.5228L60.3117 12.5208Z" fill="black"></path><path d="M71.4248 12.6785C71.4248 11.5339 71.6605 10.4812 72.1339 9.52235C72.6054 8.56352 73.2885 7.79446 74.1854 7.21316C75.0823 6.63187 76.1011 6.34222 77.2477 6.34222C78.9656 6.34222 80.3579 6.95947 81.4246 8.19397C82.4913 9.42847 83.0427 11.0045 83.0806 12.9222H73.712C73.712 14.1487 74.0536 15.1595 74.7388 15.9545C75.4219 16.7516 76.3368 17.1491 77.4814 17.1491C78.2625 17.1491 78.9516 16.9533 79.5509 16.5638C80.1482 16.1743 80.5717 15.6069 80.8174 14.8639L82.7131 15.6888C82.3255 16.6257 81.6983 17.3928 80.8274 17.992C79.9564 18.5913 78.8717 18.8909 77.5713 18.8909C75.7415 18.8909 74.2613 18.3057 73.1267 17.1351C71.9941 15.9645 71.4268 14.4803 71.4268 12.6805L71.4248 12.6785ZM73.7779 11.44H80.7035C80.5777 10.3773 80.1901 9.55232 79.5429 8.96503C78.8957 8.37775 78.1386 8.0841 77.2677 8.0841C76.3968 8.0841 75.5937 8.39373 74.9425 9.01098C74.2913 9.62822 73.9038 10.4372 73.7779 11.442V11.44Z" fill="black"></path><path d="M84.6182 12.3769H87.1391C87.1391 13.1799 87.2689 13.883 87.5286 14.4843C87.7883 15.0876 88.1399 15.555 88.5813 15.8886C89.0228 16.2222 89.4962 16.4699 90.0016 16.6297C90.507 16.7895 91.0443 16.8694 91.6176 16.8694C92.2848 16.8694 92.9061 16.7775 93.4774 16.5897C94.0487 16.402 94.5201 16.1163 94.8917 15.7308C95.2632 15.3453 95.449 14.8858 95.449 14.3585C95.449 14.1267 95.411 13.917 95.3371 13.7232C95.2632 13.5295 95.1653 13.3597 95.0475 13.2099C94.9276 13.06 94.7618 12.9202 94.5461 12.7864C94.3303 12.6525 94.1166 12.5367 93.9049 12.4408C93.6931 12.3449 93.4075 12.241 93.0499 12.1312C92.6923 12.0213 92.3747 11.9334 92.1011 11.8695C91.8274 11.8036 91.4738 11.7197 91.0384 11.6138C90.4271 11.468 89.9557 11.3541 89.6281 11.2762C89.3005 11.1983 88.857 11.0685 88.2957 10.8927C87.7344 10.7149 87.2969 10.5231 86.9853 10.3194C86.6737 10.1156 86.3461 9.86592 86.0045 9.57428C85.6629 9.28064 85.4152 8.93106 85.2634 8.52356C85.1096 8.11606 85.0337 7.65861 85.0337 7.15523C85.0337 6.52999 85.1595 5.93271 85.4132 5.3674C85.6669 4.80209 86.0364 4.29071 86.5238 3.83726C87.0113 3.38382 87.6485 3.02226 88.4375 2.75458C89.2266 2.48691 90.1195 2.35107 91.1163 2.35107C92.0012 2.35107 92.8022 2.46494 93.5153 2.69066C94.2305 2.91838 94.8257 3.22002 95.3012 3.59955C95.7786 3.97909 96.1761 4.42854 96.4957 4.94791C96.8153 5.46928 97.047 6.01062 97.1889 6.57593C97.3307 7.14124 97.4006 7.73252 97.4006 8.34977H94.8797C94.8797 7.05335 94.5661 6.06455 93.9388 5.38538C93.3116 4.70621 92.3927 4.36862 91.1842 4.36862C90.0635 4.36862 89.1786 4.61632 88.5294 5.10972C87.8802 5.60511 87.5546 6.21437 87.5546 6.93949C87.5546 7.21915 87.6165 7.46685 87.7424 7.68658C87.8682 7.90631 88.018 8.08809 88.1958 8.22992C88.3736 8.37174 88.6333 8.51557 88.9789 8.65939C89.3244 8.80322 89.704 8.92307 90.1155 9.02095C90.527 9.11883 90.9744 9.2267 91.4558 9.34256C91.8134 9.42846 92.139 9.50636 92.4346 9.57628C92.7303 9.64819 93.0639 9.74208 93.4394 9.85993C93.815 9.97779 94.1446 10.0936 94.4322 10.2035C94.7199 10.3154 95.0255 10.4472 95.3471 10.601C95.6687 10.7568 95.9524 10.9186 96.1941 11.0884C96.4358 11.2582 96.6755 11.456 96.9052 11.6797C97.1369 11.9054 97.3287 12.1412 97.4785 12.3869C97.6283 12.6346 97.7482 12.9122 97.8361 13.2218C97.926 13.5315 97.9719 13.8591 97.9719 14.2066C97.9719 15.551 97.3906 16.6676 96.226 17.5566C95.0615 18.4435 93.5253 18.8889 91.6216 18.8889C89.4483 18.8889 87.7404 18.3056 86.4939 17.1391C85.2474 15.9725 84.6262 14.3844 84.6262 12.3769H84.6182Z" fill="black"></path><path d="M99.3418 18.6113V6.62192H101.627V18.6113H99.3418Z" fill="black"></path><path d="M103.15 12.5767C103.15 11.7817 103.286 11.0066 103.558 10.2515C103.83 9.49646 104.199 8.83127 104.667 8.25597C105.134 7.68067 105.711 7.21724 106.394 6.86766C107.078 6.51809 107.811 6.3443 108.592 6.3443C109.477 6.3443 110.284 6.55005 111.013 6.96355C111.742 7.37704 112.235 7.9084 112.495 8.5616V6.64793H114.78V17.9302C114.78 18.5914 114.672 19.2166 114.457 19.8039C114.241 20.3912 113.919 20.9226 113.492 21.398C113.064 21.8734 112.499 22.2509 111.796 22.5286C111.093 22.8083 110.292 22.9461 109.393 22.9461C108.664 22.9461 107.989 22.8522 107.363 22.6664C106.738 22.4807 106.219 22.2409 105.801 21.9473C105.386 21.6537 105.026 21.3221 104.727 20.9545C104.425 20.587 104.207 20.2274 104.073 19.8778C103.939 19.5282 103.87 19.1987 103.862 18.885H106.237C106.281 19.5762 106.612 20.1595 107.229 20.6349C107.847 21.1103 108.56 21.348 109.371 21.348C109.78 21.348 110.168 21.2801 110.537 21.1403C110.905 21.0025 111.243 20.8007 111.552 20.537C111.862 20.2713 112.106 19.9138 112.287 19.4623C112.469 19.0109 112.561 18.4935 112.561 17.9122V15.7089C112.449 16.0305 112.301 16.3321 112.116 16.6118C111.93 16.8915 111.688 17.1671 111.39 17.4368C111.093 17.7065 110.711 17.9182 110.248 18.07C109.782 18.2238 109.261 18.2997 108.68 18.2997C107.104 18.2997 105.787 17.7564 104.733 16.6717C103.678 15.587 103.148 14.2187 103.148 12.5687L103.15 12.5767ZM105.436 12.5328C105.436 13.7972 105.809 14.83 106.556 15.629C107.303 16.428 108.186 16.8275 109.205 16.8275C110.224 16.8275 111.053 16.418 111.692 15.597C112.331 14.776 112.651 13.7852 112.651 12.6227C112.651 11.8616 112.517 11.1544 112.249 10.5032C111.982 9.85203 111.57 9.31668 111.017 8.89519C110.464 8.47371 109.822 8.26196 109.093 8.26196C108.03 8.26196 107.156 8.67546 106.466 9.49846C105.779 10.3235 105.436 11.3342 105.436 12.5328Z" fill="black"></path><path d="M116.35 18.6114V6.62196H118.635V9.82207C118.984 8.77334 119.536 7.93237 120.289 7.29714C121.042 6.66191 121.969 6.3443 123.069 6.3443C124.406 6.3443 125.451 6.80973 126.204 7.7386C126.957 8.66747 127.334 9.93992 127.334 11.552V18.6114H125.049V12.6786C125.049 9.69023 124.126 8.19605 122.278 8.19605C121.705 8.19605 121.18 8.34387 120.704 8.63751C120.227 8.93115 119.843 9.31269 119.554 9.78012C119.264 10.2475 119.038 10.7589 118.879 11.3142C118.719 11.8696 118.639 12.4189 118.639 12.9702V18.6134H116.354L116.35 18.6114Z" fill="black"></path><path d="M128.662 15.6449C128.662 15.2434 128.752 14.8658 128.93 14.5123C129.108 14.1587 129.331 13.8551 129.599 13.5974C129.867 13.3397 130.212 13.09 130.636 12.8443C131.059 12.5986 131.463 12.3969 131.846 12.237C132.23 12.0772 132.677 11.9035 133.191 11.7177L137.006 10.3474V10.2694C137.006 10.0757 136.956 9.86394 136.856 9.63422C136.756 9.4045 136.604 9.16879 136.405 8.92708C136.205 8.68537 135.915 8.48562 135.54 8.32381C135.164 8.16401 134.739 8.08411 134.263 8.08411C133.318 8.08411 132.565 8.38374 132.004 8.98301C131.443 9.58228 131.157 10.4093 131.151 11.464H128.798C128.836 9.93186 129.347 8.69736 130.334 7.75651C131.321 6.81565 132.615 6.34622 134.219 6.34622C135.702 6.34622 136.918 6.75972 137.869 7.59071C138.82 8.42169 139.293 9.55831 139.293 11.0085V18.6133H137.008V15.0776C136.65 16.2142 136.107 17.1351 135.374 17.8382C134.641 18.5414 133.73 18.8909 132.635 18.8909C131.477 18.8909 130.524 18.5753 129.781 17.9421C129.038 17.3109 128.666 16.5438 128.666 15.6449H128.662ZM131.083 15.4332C131.083 15.8487 131.279 16.2222 131.668 16.5478C132.058 16.8754 132.573 17.0392 133.213 17.0392C133.852 17.0392 134.403 16.8614 134.912 16.5039C135.422 16.1463 135.821 15.7028 136.111 15.1715C136.401 14.6401 136.622 14.1068 136.774 13.5714C136.926 13.0361 137.004 12.5447 137.004 12.0992L133.692 13.2698C132.851 13.5594 132.208 13.8791 131.756 14.2286C131.307 14.5782 131.081 14.9797 131.081 15.4332H131.083Z" fill="black"></path><path d="M140.95 18.6114V2.61884H143.235V18.6114H140.95Z" fill="black"></path><path d="M101.761 2.62283H99.1963V5.06985H101.761V2.62283Z" fill="black"></path></g><defs><clipPath id="clip0_731_14501"><rect width="142.473" height="23" fill="white" transform="translate(0.763672)"></rect></clipPath></defs></svg>