<svg width="80" height="80" viewBox="0 0 80 80" fill="none" xmlns="http://www.w3.org/2000/svg">
<path d="M39.6402 21.55C24.6102 21.55 12.4302 24.08 12.4302 27.21C12.4302 27.78 12.8302 28.32 13.5802 28.84C16.9502 31.17 27.3402 33.5401 39.6502 33.5401C51.9602 33.5401 62.3502 31.17 65.7202 28.84C66.4702 28.32 66.8702 27.78 66.8702 27.21C66.8702 24.09 54.6902 21.55 39.6602 21.55H39.6402Z" fill="#390297"/>
<path d="M65.3 27.29C65.3 27.71 64.92 28.11 64.22 28.49C61.05 30.2 51.24 31.94 39.64 31.94C28.04 31.94 18.24 30.2 15.06 28.49C14.36 28.11 13.98 27.71 13.98 27.29C13.98 25 25.47 23.14 39.64 23.14C53.81 23.14 65.3 25 65.3 27.29Z" fill="white"/>
<path d="M37.9303 22.8699V54.7199H36.3403V23.5699L21.9903 10.3299C21.6303 10.5299 21.2203 10.6399 20.7803 10.6399C19.4003 10.6399 18.2803 9.51989 18.2803 8.13989C18.2803 6.75989 19.4003 5.63989 20.7803 5.63989C22.1603 5.63989 23.2803 6.75989 23.2803 8.13989C23.2803 8.49989 23.2003 8.84989 23.0603 9.15989L37.9303 22.8699Z" fill="#FF6456"/>
<path d="M42.1399 2.68994C42.1399 3.79994 41.4299 4.72994 40.4299 5.06994V54.7099H38.8399V5.06994C37.8499 4.73994 37.1299 3.79994 37.1299 2.68994C37.1299 1.30994 38.2499 0.189941 39.6299 0.189941C41.0099 0.189941 42.1299 1.30994 42.1299 2.68994H42.1399Z" fill="#FF6456"/>
<path d="M74.2003 20.47C74.2003 21.85 73.0803 22.97 71.7003 22.97C70.8003 22.97 70.0203 22.5 69.5803 21.79L45.4303 27.56V54.71H43.8403V26.31L69.2103 20.25C69.3203 18.97 70.4003 17.97 71.7103 17.97C73.0903 17.97 74.2103 19.09 74.2103 20.47H74.2003Z" fill="#FF6456"/>
<path d="M61.0099 8.12989C61.0099 9.50989 59.8899 10.6299 58.5099 10.6299C58.0699 10.6299 57.6599 10.5199 57.2999 10.3199L42.9499 23.5599V54.7099H41.3599V22.8699L56.2299 9.15989C56.0899 8.84989 56.0099 8.49989 56.0099 8.13989C56.0099 6.75989 57.1299 5.63989 58.5099 5.63989C59.8899 5.63989 61.0099 6.75989 61.0099 8.13989V8.12989Z" fill="#FF6456"/>
<path d="M35.4601 26.31V54.71H33.8701V27.57L9.7201 21.8C9.2801 22.51 8.4901 22.98 7.6001 22.98C6.2201 22.98 5.1001 21.86 5.1001 20.48C5.1001 19.1 6.2201 17.98 7.6001 17.98C8.9101 17.98 9.9801 18.98 10.1001 20.26L35.4701 26.32L35.4601 26.31Z" fill="#FF6456"/>
<path d="M45.1802 74.42L40.2002 79.81L35.2202 74.42H37.6102V60.13H42.7802V74.42H45.1802Z" fill="#FF6456"/>
<path d="M65.2999 27.05C63.6799 28.17 60.1399 29.39 55.8199 30.3C52.2599 31.05 46.5699 31.95 39.6499 31.95C30.4099 31.95 18.0399 30.15 14.0499 27.38L13.3599 28.63L31.9299 55.47V68.81C31.9299 69.01 31.9799 69.2 32.0699 69.37C32.3199 69.79 32.7599 69.95 33.2999 69.95C33.9599 69.95 34.7699 69.7 35.5499 69.43C37.0299 68.89 38.8799 68.01 40.7599 66.92C42.4999 65.92 44.0999 64.83 45.2799 63.88C47.0799 62.41 47.3399 61.68 47.3699 61.22V55.46L66.4099 28.14L65.3099 27.04L65.2999 27.05ZM62.6899 30.71L61.9699 31.74L60.1299 34.38L59.1299 35.81L57.5799 38.03L56.5599 39.5L55.0899 41.6L53.9699 43.2L52.5499 45.25L50.1299 48.73L45.9199 54.76L45.7799 55.22V61.12C45.5799 61.62 43.7199 63.38 39.9799 65.55C36.6999 67.44 34.4099 68.24 33.5299 68.35V55.23L33.3899 54.78L16.3999 30.24C18.2399 30.94 20.6199 31.57 23.3899 32.1C29.6399 33.29 35.6699 33.54 39.6399 33.54C46.6999 33.54 52.5099 32.62 56.1399 31.85C58.9399 31.26 61.3999 30.56 63.3099 29.8L62.6799 30.71H62.6899Z" fill="#390297"/>
<path d="M63.3199 29.8L62.6899 30.71L61.9699 31.74L60.1299 34.3801L59.1299 35.8101L57.5799 38.03L56.5599 39.5L55.0899 41.6L53.9699 43.2001L52.5499 45.25L50.1299 48.73L45.9199 54.76L45.7799 55.2201V61.12C45.5799 61.62 43.7199 63.3801 39.9799 65.5501C36.6999 67.4401 34.4099 68.24 33.5299 68.35V55.23L33.3899 54.78L16.3999 30.24C18.2399 30.94 20.6199 31.57 23.3899 32.1C29.6399 33.29 35.6699 33.5401 39.6399 33.5401C46.6999 33.5401 52.5099 32.62 56.1399 31.85C58.9399 31.2601 61.3999 30.56 63.3099 29.8H63.3199Z" fill="white"/>
</svg>
