<svg width="143" height="31" fill="none" xmlns="http://www.w3.org/2000/svg"><g clip-path="url(#a)"><g clip-path="url(#b)" fill="#fff"><path d="M27.594 16.899a17.48 17.48 0 0 1-1.215 6.474c-.81 2.053-2 3.916-3.503 5.483l-.053.056-2.379-2.492.054-.056a13.587 13.587 0 0 0 3.498-6.852 13.97 13.97 0 0 0-.727-7.734c-.968-2.445-2.606-4.535-4.708-6.005a12.36 12.36 0 0 0-7.1-2.25 12.187 12.187 0 0 0-4.888 1.012 12.667 12.667 0 0 0-4.138 2.907l-.053.055L0 5.005l.053-.055C2.31 2.583 5.185.97 8.316.318a15.452 15.452 0 0 1 9.326.962c2.95 1.28 5.47 3.448 7.242 6.23a17.479 17.479 0 0 1 2.715 9.397l-.005-.008Z"/><path d="M11.46 6.728a9.4 9.4 0 0 0-5.394 1.714 10.086 10.086 0 0 0-3.577 4.566 10.624 10.624 0 0 0-.552 5.878 10.332 10.332 0 0 0 2.658 5.209 9.583 9.583 0 0 0 4.972 2.784 9.3 9.3 0 0 0 5.611-.58 9.824 9.824 0 0 0 4.358-3.747 10.522 10.522 0 0 0 1.636-5.653c-.003-2.697-1.028-5.282-2.848-7.19-1.82-1.906-4.289-2.979-6.863-2.981Zm0 16.821a6.143 6.143 0 0 1-3.525-1.12 6.591 6.591 0 0 1-2.338-2.982 6.943 6.943 0 0 1-.362-3.842 6.752 6.752 0 0 1 1.736-3.404 6.262 6.262 0 0 1 3.249-1.82 6.078 6.078 0 0 1 3.666.377 6.419 6.419 0 0 1 2.85 2.448 6.875 6.875 0 0 1 1.07 3.693 6.82 6.82 0 0 1-1.86 4.7c-1.19 1.246-2.803 1.948-4.485 1.95Z"/><path d="M10.633 21.132c1.774 0 3.211-1.506 3.211-3.364 0-1.858-1.438-3.364-3.21-3.364-1.774 0-3.212 1.506-3.212 3.364 0 1.858 1.438 3.364 3.211 3.364Z"/><path d="M10.633 21.212c1.816 0 3.287-1.542 3.287-3.444s-1.472-3.444-3.287-3.444-3.287 1.542-3.287 3.444 1.472 3.444 3.287 3.444ZM40.642 17.924l1.901 2.091-.1.12a6.004 6.004 0 0 1-2.055 1.534 5.86 5.86 0 0 1-2.477.545 5.727 5.727 0 0 1-2.301-.478 5.55 5.55 0 0 1-1.856-1.266 5.855 5.855 0 0 1-1.238-1.923 6.295 6.295 0 0 1-.044-4.664 6.073 6.073 0 0 1 1.252-1.983 5.76 5.76 0 0 1 1.886-1.325 6.063 6.063 0 0 1 4.842.08 5.946 5.946 0 0 1 2.073 1.534l.1.12-1.964 2.184-.12-.14a4.113 4.113 0 0 0-1.172-1.016 2.88 2.88 0 0 0-1.37-.332c-.37-.01-.739.067-1.078.223-.34.156-.642.388-.887.68a3.29 3.29 0 0 0-.799 2.244c-.013.407.05.812.188 1.193.137.38.345.73.611 1.025.256.287.567.514.912.667.345.154.717.23 1.091.223.438-.003.87-.102 1.268-.292.443-.224.84-.537 1.166-.923l.172-.121Z"/><path d="M54.194 13.767a6.016 6.016 0 0 0-1.267-1.926 5.925 5.925 0 0 0-1.903-1.328 6.066 6.066 0 0 0-4.664 0c-.71.309-1.357.76-1.902 1.328a5.95 5.95 0 0 0-1.268 1.926 6.475 6.475 0 0 0 0 4.783 5.93 5.93 0 0 0 1.268 1.913 5.96 5.96 0 0 0 1.902 1.275 6.066 6.066 0 0 0 4.664 0 5.96 5.96 0 0 0 1.903-1.275 5.85 5.85 0 0 0 1.267-1.913 6.396 6.396 0 0 0 0-4.783Zm-5.478 5.551a2.579 2.579 0 0 1-1.097-.23 2.69 2.69 0 0 1-.912-.68 3.116 3.116 0 0 1-.627-1.022 3.23 3.23 0 0 1-.204-1.196c-.01-.413.06-.824.202-1.209.143-.385.356-.737.629-1.036a2.71 2.71 0 0 1 .91-.691c.345-.162.72-.245 1.099-.245a2.54 2.54 0 0 1 1.097.224c.347.156.657.387.912.679.55.603.848 1.41.83 2.245.008.409-.061.815-.204 1.195-.142.381-.355.728-.626 1.022-.25.3-.56.54-.906.703a2.53 2.53 0 0 1-1.103.241ZM63.34 10.363v2.978l-.228-.114a2.712 2.712 0 0 0-.634-.212 3.512 3.512 0 0 0-.741-.073 2.706 2.706 0 0 0-1.452.413 2.76 2.76 0 0 0-1.014 1.16v7.459h-3.17V10.292h3.17v.957c.294-.335.644-.61 1.034-.81a3.648 3.648 0 0 1 1.716-.411c.243.007.484.034.723.08.193.031.377.101.545.205l.052.05ZM74.818 16.376a7.242 7.242 0 0 0-.417-2.49 5.98 5.98 0 0 0-1.16-1.993 5.4 5.4 0 0 0-1.755-1.328 5.018 5.018 0 0 0-2.201-.479 5.568 5.568 0 0 0-2.262.479 5.638 5.638 0 0 0-1.826 1.307 6.246 6.246 0 0 0-1.648 4.305 6.23 6.23 0 0 0 .457 2.391c.297.72.728 1.37 1.267 1.913a5.97 5.97 0 0 0 4.26 1.741 6.856 6.856 0 0 0 2.395-.398 7.24 7.24 0 0 0 2.13-1.276l.14-.12-2.117-2.024-.107.105c-.288.293-.632.52-1.009.665a3.59 3.59 0 0 1-1.268.226 2.95 2.95 0 0 1-1.862-.618 3.018 3.018 0 0 1-1.046-1.448h8.023l.006-.958Zm-7.18-2.895a2.33 2.33 0 0 1 1.584-.585c.571-.005 1.124.21 1.553.604.398.354.7.811.875 1.326h-4.88a2.93 2.93 0 0 1 .868-1.347v.002ZM85.474 18.294a3.331 3.331 0 0 1-.38 1.573 3.96 3.96 0 0 1-1.033 1.242 4.967 4.967 0 0 1-1.553.818 6.311 6.311 0 0 1-1.94.286 9.476 9.476 0 0 1-2.814-.405 6.575 6.575 0 0 1-2.263-1.203l-.12-.1 1.596-2.232.128.086c.554.39 1.15.712 1.775.957.53.205 1.089.313 1.654.319a2.918 2.918 0 0 0 1.458-.32.786.786 0 0 0 .346-.286.842.842 0 0 0 .142-.437.692.692 0 0 0-.06-.323.658.658 0 0 0-.2-.254 2.065 2.065 0 0 0-.957-.332l-2.085-.331a4.584 4.584 0 0 1-2.536-1.13 3.064 3.064 0 0 1-.686-1.064 3.183 3.183 0 0 1-.208-1.266 3.462 3.462 0 0 1 .313-1.54c.22-.48.548-.897.954-1.217a5.298 5.298 0 0 1 3.399-1.015 7.891 7.891 0 0 1 2.357.365c.773.253 1.51.617 2.187 1.082l.14.093-1.522 2.186-.12-.074a8.315 8.315 0 0 0-1.674-.81 5.042 5.042 0 0 0-1.597-.26 2.094 2.094 0 0 0-1.153.28.737.737 0 0 0-.285.275.783.783 0 0 0-.108.39.688.688 0 0 0 .065.325c.047.101.119.188.207.252.33.184.693.293 1.066.318l2.086.332a4.433 4.433 0 0 1 2.536 1.137c.293.293.524.648.677 1.041.153.394.224.817.208 1.242ZM89.754 10.292h-3.17v11.707h3.17V10.292ZM89.91 7.406c0 .306-.073.608-.212.878s-.34.5-.583.67a1.708 1.708 0 0 1-1.671.167 1.79 1.79 0 0 1-.694-.541 1.906 1.906 0 0 1-.367-.82 1.95 1.95 0 0 1 .045-.906c.085-.293.239-.56.447-.776.247-.267.565-.45.913-.524a1.694 1.694 0 0 1 1.036.105c.327.144.606.387.8.698.194.312.294.677.287 1.049ZM99.68 10.293v.619a6.036 6.036 0 0 0-1.174-.549 5.554 5.554 0 0 0-3.847.217c-1.373.594-2.467 1.732-3.044 3.166a6.04 6.04 0 0 0-.457 2.325 6.143 6.143 0 0 0 1.636 4.242 5.718 5.718 0 0 0 1.8 1.276c.7.316 1.455.479 2.218.478a4.913 4.913 0 0 0 2.822-.87v.618a2.02 2.02 0 0 1-.127.855 1.941 1.941 0 0 1-.47.712 2.716 2.716 0 0 1-1.826.538 6.326 6.326 0 0 1-1.674-.227 8.968 8.968 0 0 1-1.718-.663l-.145-.08-1.13 2.656.135.074c.685.35 1.409.61 2.155.776.8.18 1.616.27 2.435.266a6.033 6.033 0 0 0 4.095-1.262c.484-.446.865-1 1.114-1.623a4.64 4.64 0 0 0 .324-1.97V10.294h-3.121Zm-2.427 8.906c-.391.007-.78-.07-1.142-.226a2.859 2.859 0 0 1-.962-.684 3.06 3.06 0 0 1-.649-1.017 3.174 3.174 0 0 1-.214-1.201 3.03 3.03 0 0 1 .215-1.182c.15-.374.372-.711.654-.99.279-.29.61-.517.974-.67a2.817 2.817 0 0 1 1.147-.22c.458 0 .912.087 1.34.259.379.149.726.374 1.02.665v4.328c-.3.285-.649.51-1.027.665a3.456 3.456 0 0 1-1.356.273ZM115.264 14.762v7.212h-3.168v-6.781a2.303 2.303 0 0 0-.13-.864 2.221 2.221 0 0 0-.441-.743 2.023 2.023 0 0 0-.701-.469 1.947 1.947 0 0 0-.821-.135 2.6 2.6 0 0 0-1.217.279 2.4 2.4 0 0 0-.881.744v7.972h-3.163V10.292h3.17v.724c.36-.28.758-.504 1.18-.663.545-.202 1.12-.3 1.698-.292a4.113 4.113 0 0 1 1.733.309 4.267 4.267 0 0 1 1.468 1.011c.418.44.744.966.957 1.544.214.579.312 1.197.286 1.817l.03.02ZM125.534 11.224a5.046 5.046 0 0 0-3.513-1.143 9.653 9.653 0 0 0-2.395.306c-.859.225-1.696.538-2.497.932l-.153.074 1.186 2.497.138-.067c.582-.268 1.182-.49 1.795-.664.472-.14.96-.216 1.451-.226a2.405 2.405 0 0 1 1.604.46c.179.164.319.37.41.6.091.23.13.479.116.727v.61a8.59 8.59 0 0 0-2.484-.38 5.4 5.4 0 0 0-3.392.918 3.11 3.11 0 0 0-.952 1.162 3.282 3.282 0 0 0-.316 1.494 3.454 3.454 0 0 0 .287 1.47c.201.46.5.866.874 1.186a4.3 4.3 0 0 0 2.953 1.01 5.774 5.774 0 0 0 1.744-.246c.444-.14.87-.339 1.267-.591v.664h3.131v-7.56a4.243 4.243 0 0 0-.279-1.765 4.057 4.057 0 0 0-.975-1.468Zm-4.091 8.5a2.308 2.308 0 0 1-1.344-.353 1.043 1.043 0 0 1-.353-.384 1.098 1.098 0 0 1 0-1.032c.085-.158.206-.29.353-.384.44-.259.942-.38 1.446-.35.392-.001.784.03 1.172.091.326.057.646.146.957.265v1.502a3.711 3.711 0 0 1-.976.464c-.408.123-.83.183-1.255.18ZM131.828 5.698V22h-3.17V6.422l3.17-.724ZM137.538 6.33V2.81h1.718c.163-.002.325.026.478.083a1.075 1.075 0 0 1 .709 1.038 1.05 1.05 0 0 1-.173.593 1.122 1.122 0 0 1-.457.399l.735 1.408h-.922l-.633-1.276h-.63V6.34l-.825-.008Zm1.642-2.781h-.817v.797h.817a.425.425 0 0 0 .304-.112.394.394 0 0 0 .119-.286.394.394 0 0 0-.119-.286.426.426 0 0 0-.304-.113Z"/><path d="M138.889 8.209a3.361 3.361 0 0 1-1.93-.614 3.606 3.606 0 0 1-1.28-1.634 3.802 3.802 0 0 1-.197-2.103 3.695 3.695 0 0 1 .951-1.864A3.427 3.427 0 0 1 138.212 1a3.33 3.33 0 0 1 2.008.207 3.516 3.516 0 0 1 1.559 1.342 3.772 3.772 0 0 1-.434 4.594 3.402 3.402 0 0 1-2.456 1.067Zm0-6.649a2.78 2.78 0 0 0-1.596.508c-.473.33-.841.8-1.058 1.35a3.138 3.138 0 0 0-.164 1.74c.111.583.385 1.12.787 1.54a2.83 2.83 0 0 0 1.471.825 2.752 2.752 0 0 0 1.66-.172 2.902 2.902 0 0 0 1.289-1.108 3.111 3.111 0 0 0 .485-1.673 3.092 3.092 0 0 0-.842-2.128 2.812 2.812 0 0 0-2.032-.882Z"/></g></g><defs><clipPath id="a"><path fill="#fff" d="M0 0h142.364v30.381H0z"/></clipPath><clipPath id="b"><path fill="#fff" d="M0 0h142.364v28.908H0z"/></clipPath></defs></svg>